<svg enable-background="new 0 0 477.867 477.867" viewBox="0 0 477.867 477.867" xmlns="http://www.w3.org/2000/svg"><path d="m460.8 0h-443.733c-9.426 0-17.067 7.641-17.067 17.067v443.733c0 9.426 7.641 17.067 17.067 17.067h443.733c9.426 0 17.067-7.641 17.067-17.067v-443.733c0-9.426-7.641-17.067-17.067-17.067zm-17.067 443.733h-409.6v-409.6h409.6z"/><path d="m392.533 68.267h-68.267c-9.426 0-17.067 7.641-17.067 17.067s7.641 17.067 17.067 17.067h27.068l-90.334 90.334c-6.664 6.666-6.662 17.472.004 24.136 3.2 3.199 7.538 4.996 12.063 4.997 4.526-.001 8.866-1.8 12.066-5.001l90.334-90.334v27.067c0 9.426 7.641 17.067 17.067 17.067s17.066-7.641 17.066-17.067v-68.267c0-9.425-7.641-17.066-17.067-17.066z"/><path d="m392.533 307.2c-9.426 0-17.067 7.641-17.067 17.067v27.068l-90.334-90.334c-6.78-6.548-17.584-6.36-24.132.42-6.387 6.614-6.387 17.099 0 23.712l90.334 90.334h-27.068c-9.426 0-17.067 7.641-17.067 17.067s7.641 17.067 17.067 17.067h68.267c9.426 0 17.067-7.641 17.067-17.067v-68.267c0-9.426-7.641-17.067-17.067-17.067z"/><path d="m216.447 261.001c-6.614-6.388-17.099-6.388-23.713 0l-90.334 90.333v-27.068c0-9.426-7.641-17.067-17.067-17.067s-17.067 7.641-17.067 17.067v68.267c.008 6.9 4.17 13.117 10.547 15.753 2.065.865 4.281 1.312 6.519 1.314h68.268c9.426 0 17.067-7.641 17.067-17.067s-7.641-17.067-17.067-17.067h-27.068l90.334-90.334c6.548-6.779 6.36-17.583-.419-24.131z"/><path d="m216.866 192.734-90.334-90.334h27.068c9.426 0 17.067-7.641 17.067-17.067s-7.641-17.067-17.067-17.067h-68.267c-9.426 0-17.067 7.641-17.067 17.067v68.267c0 9.426 7.641 17.067 17.067 17.067s17.067-7.641 17.067-17.067v-27.068l90.334 90.334c6.78 6.548 17.584 6.361 24.132-.419 6.388-6.614 6.388-17.099 0-23.713z"/></svg>